<?xml version="1.0" encoding="utf-8"?>
<!-- Generator: Adobe Illustrator 19.1.0, SVG Export Plug-In . SVG Version: 6.00 Build 0)  -->
<svg version="1.1" xmlns="http://www.w3.org/2000/svg" xmlns:xlink="http://www.w3.org/1999/xlink" x="0px" y="0px"
	 viewBox="0 0 2000 865" style="enable-background:new 0 0 2000 865;" xml:space="preserve">
<style type="text/css">
	.st0{fill:#FFFFFF;stroke:#000000;stroke-miterlimit:10;}
	.st1{fill:none;stroke:#000000;stroke-miterlimit:10;}
</style>
<g id="Layer_3">
	<rect x="243.2" y="212.5" class="st0" width="166.8" height="86.3"/>
	<rect x="1619" y="132.7" class="st0" width="58.5" height="58.3"/>
	<line class="st1" x1="1678" y1="201.5" x2="1706" y2="201.5"/>
	<polygon class="st1" points="1677.5,80.5 1836.5,80.5 1836.5,794.5 163.5,794.5 163.5,212.5 1677.5,212.5 	"/>
	<rect x="146.5" y="637.1" class="st1" width="17" height="45"/>
	<rect x="129.5" y="637.1" class="st1" width="17" height="45"/>
	<rect x="112.5" y="637.1" class="st1" width="17" height="45"/>
	<rect x="95.5" y="637.1" class="st1" width="17" height="45"/>
	<rect x="78.5" y="637.1" class="st1" width="17" height="45"/>
	<rect x="44.5" y="637.1" class="st1" width="17" height="45"/>
	<rect x="61.5" y="637.1" class="st1" width="17" height="45"/>
	<rect x="44.5" y="682.1" class="st1" width="45" height="17"/>
	<rect x="44.5" y="699.1" class="st1" width="45" height="17"/>
	<rect x="44.5" y="716.1" class="st1" width="45" height="17"/>
	<rect x="44.5" y="733.1" class="st1" width="45" height="17"/>
	<rect x="44.5" y="750.1" class="st1" width="45" height="17"/>
	<rect x="44.5" y="767.1" class="st1" width="45" height="17"/>
	<rect x="1836.5" y="637.1" class="st1" width="17" height="45"/>
	<rect x="1853.5" y="637.1" class="st1" width="17" height="45"/>
	<rect x="1870.5" y="637.1" class="st1" width="17" height="45"/>
	<rect x="1887.5" y="637.1" class="st1" width="17" height="45"/>
	<rect x="1904.5" y="637.1" class="st1" width="17" height="45"/>
	<rect x="1921.5" y="637.1" class="st1" width="17" height="45"/>
	<rect x="1910.5" y="682.1" class="st1" width="45" height="17"/>
	<rect x="1910.5" y="699.1" class="st1" width="45" height="17"/>
	<rect x="1910.5" y="716.1" class="st1" width="45" height="17"/>
	<rect x="1910.5" y="733.1" class="st1" width="45" height="17"/>
	<rect x="1910.5" y="750.1" class="st1" width="45" height="17"/>
	<rect x="1910.5" y="767.1" class="st1" width="45" height="17"/>
	<polyline class="st1" points="1677,80.5 163.5,80.5 163.5,213 	"/>
	<path class="st1" d="M163.5,80.5c0,0,58.2,108.8,133.5,132"/>
	<path class="st1" d="M311.7,212.5c0,0,92-32.5,137.3-132"/>
	<path class="st1" d="M311.5,80.5c0,0,58.2,108.8,133.5,132"/>
	<path class="st1" d="M459.7,212.5c0,0,92-32.5,137.3-132"/>
	<path class="st1" d="M459.5,80.5c0,0,58.2,108.8,133.5,132"/>
	<path class="st1" d="M607.7,212.5c0,0,92-32.5,137.3-132"/>
	<path class="st1" d="M607.5,80.5c0,0,58.2,108.8,133.5,132"/>
	<path class="st1" d="M755.7,212.5c0,0,92-32.5,137.3-132"/>
	<path class="st1" d="M903.5,80.5c0,0,58.2,108.8,133.5,132"/>
	<path class="st1" d="M1048.5,80.5c0,0,58.2,108.8,133.5,132"/>
	<path class="st1" d="M1051.7,212.5c0,0,92-32.5,137.3-132"/>
	<path class="st1" d="M1325.5,80.5c0,0,58.2,108.8,133.5,132"/>
	<path class="st1" d="M1328.7,212.5c0,0,92-32.5,137.3-132"/>
	<path class="st1" d="M1471.5,80.5c0,0,58.2,108.8,133.5,132"/>
	<path class="st1" d="M1474.7,212.5c0,0,92-32.5,137.3-132"/>
	<path class="st1" d="M163.7,212.5c0,0,92-32.5,137.3-132"/>
	<rect x="1186" y="80.5" class="st0" width="71.4" height="171"/>
	<rect x="1257.4" y="80.5" class="st0" width="71.4" height="171"/>
</g>
<g id="Layer_1">
	<circle class="st0" cx="199" cy="437.3" r="9"/>
	<circle class="st0" cx="199" cy="393.3" r="9"/>
	<circle class="st0" cx="225" cy="437.3" r="9"/>
	<circle class="st0" cx="225" cy="393.3" r="9"/>
	<rect x="190" y="406.2" class="st0" width="44" height="18"/>
	<circle class="st0" cx="273" cy="437.3" r="9"/>
	<circle class="st0" cx="273" cy="393.3" r="9"/>
	<circle class="st0" cx="299" cy="437.3" r="9"/>
	<circle class="st0" cx="299" cy="393.3" r="9"/>
	<rect x="264" y="406.2" class="st0" width="44" height="18"/>
	<circle class="st0" cx="199" cy="514.3" r="9"/>
	<circle class="st0" cx="199" cy="470.3" r="9"/>
	<circle class="st0" cx="225" cy="514.3" r="9"/>
	<circle class="st0" cx="225" cy="470.3" r="9"/>
	<rect x="190" y="483.2" class="st0" width="44" height="18"/>
	<circle class="st0" cx="273" cy="514.3" r="9"/>
	<circle class="st0" cx="273" cy="470.3" r="9"/>
	<circle class="st0" cx="299" cy="514.3" r="9"/>
	<circle class="st0" cx="299" cy="470.3" r="9"/>
	<rect x="264" y="483.2" class="st0" width="44" height="18"/>
	<circle class="st0" cx="199" cy="590.3" r="9"/>
	<circle class="st0" cx="199" cy="546.3" r="9"/>
	<circle class="st0" cx="225" cy="590.3" r="9"/>
	<circle class="st0" cx="225" cy="546.3" r="9"/>
	<rect x="190" y="559.2" class="st0" width="44" height="18"/>
	<circle class="st0" cx="273" cy="590.3" r="9"/>
	<circle class="st0" cx="273" cy="546.3" r="9"/>
	<circle class="st0" cx="299" cy="590.3" r="9"/>
	<circle class="st0" cx="299" cy="546.3" r="9"/>
	<rect x="264" y="559.2" class="st0" width="44" height="18"/>
	<circle class="st0" cx="199" cy="667.3" r="9"/>
	<circle class="st0" cx="199" cy="623.3" r="9"/>
	<circle class="st0" cx="225" cy="667.3" r="9"/>
	<circle class="st0" cx="225" cy="623.3" r="9"/>
	<rect x="190" y="636.2" class="st0" width="44" height="18"/>
	<circle class="st0" cx="273" cy="667.3" r="9"/>
	<circle class="st0" cx="273" cy="623.3" r="9"/>
	<circle class="st0" cx="299" cy="667.3" r="9"/>
	<circle class="st0" cx="299" cy="623.3" r="9"/>
	<rect x="264" y="636.2" class="st0" width="44" height="18"/>
	<circle class="st0" cx="441" cy="230.3" r="9"/>
	<circle class="st0" cx="485" cy="230.3" r="9"/>
	<circle class="st0" cx="441" cy="256.3" r="9"/>
	<circle class="st0" cx="485" cy="256.3" r="9"/>
	<rect x="454.2" y="221.3" class="st0" width="18" height="44"/>
	<circle class="st0" cx="540" cy="230.3" r="9"/>
	<circle class="st0" cx="584" cy="230.3" r="9"/>
	<circle class="st0" cx="540" cy="256.3" r="9"/>
	<circle class="st0" cx="584" cy="256.3" r="9"/>
	<rect x="553.2" y="221.3" class="st0" width="18" height="44"/>
	<circle class="st0" cx="714" cy="230.3" r="9"/>
	<circle class="st0" cx="758" cy="230.3" r="9"/>
	<circle class="st0" cx="714" cy="256.3" r="9"/>
	<circle class="st0" cx="758" cy="256.3" r="9"/>
	<rect x="727.2" y="221.3" class="st0" width="18" height="44"/>
	<circle class="st0" cx="813" cy="230.3" r="9"/>
	<circle class="st0" cx="857" cy="230.3" r="9"/>
	<circle class="st0" cx="813" cy="256.3" r="9"/>
	<circle class="st0" cx="857" cy="256.3" r="9"/>
	<rect x="826.2" y="221.3" class="st0" width="18" height="44"/>
	<circle class="st0" cx="998" cy="230.3" r="9"/>
	<circle class="st0" cx="1042" cy="230.3" r="9"/>
	<circle class="st0" cx="998" cy="256.3" r="9"/>
	<circle class="st0" cx="1042" cy="256.3" r="9"/>
	<rect x="1011.2" y="221.3" class="st0" width="18" height="44"/>
	<circle class="st0" cx="1097" cy="230.3" r="9"/>
	<circle class="st0" cx="1141" cy="230.3" r="9"/>
	<circle class="st0" cx="1097" cy="256.3" r="9"/>
	<circle class="st0" cx="1141" cy="256.3" r="9"/>
	<rect x="1110.2" y="221.3" class="st0" width="18" height="44"/>
	<circle class="st0" cx="469" cy="360.3" r="9"/>
	<circle class="st0" cx="469" cy="316.3" r="9"/>
	<circle class="st0" cx="495" cy="360.3" r="9"/>
	<circle class="st0" cx="495" cy="316.3" r="9"/>
	<rect x="460" y="329.2" class="st0" width="44" height="18"/>
	<circle class="st0" cx="543" cy="360.3" r="9"/>
	<circle class="st0" cx="543" cy="316.3" r="9"/>
	<circle class="st0" cx="569" cy="360.3" r="9"/>
	<circle class="st0" cx="569" cy="316.3" r="9"/>
	<rect x="534" y="329.2" class="st0" width="44" height="18"/>
	<circle class="st0" cx="469" cy="437.3" r="9"/>
	<circle class="st0" cx="469" cy="393.3" r="9"/>
	<circle class="st0" cx="495" cy="437.3" r="9"/>
	<circle class="st0" cx="495" cy="393.3" r="9"/>
	<rect x="460" y="406.2" class="st0" width="44" height="18"/>
	<circle class="st0" cx="543" cy="437.3" r="9"/>
	<circle class="st0" cx="543" cy="393.3" r="9"/>
	<circle class="st0" cx="569" cy="437.3" r="9"/>
	<circle class="st0" cx="569" cy="393.3" r="9"/>
	<rect x="534" y="406.2" class="st0" width="44" height="18"/>
	<circle class="st0" cx="469" cy="514.3" r="9"/>
	<circle class="st0" cx="469" cy="470.3" r="9"/>
	<circle class="st0" cx="495" cy="514.3" r="9"/>
	<circle class="st0" cx="495" cy="470.3" r="9"/>
	<rect x="460" y="483.2" class="st0" width="44" height="18"/>
	<circle class="st0" cx="543" cy="514.3" r="9"/>
	<circle class="st0" cx="543" cy="470.3" r="9"/>
	<circle class="st0" cx="569" cy="514.3" r="9"/>
	<circle class="st0" cx="569" cy="470.3" r="9"/>
	<rect x="534" y="483.2" class="st0" width="44" height="18"/>
	<circle class="st0" cx="469" cy="590.3" r="9"/>
	<circle class="st0" cx="469" cy="546.3" r="9"/>
	<circle class="st0" cx="495" cy="590.3" r="9"/>
	<circle class="st0" cx="495" cy="546.3" r="9"/>
	<rect x="460" y="559.2" class="st0" width="44" height="18"/>
	<circle class="st0" cx="543" cy="590.3" r="9"/>
	<circle class="st0" cx="543" cy="546.3" r="9"/>
	<circle class="st0" cx="569" cy="590.3" r="9"/>
	<circle class="st0" cx="569" cy="546.3" r="9"/>
	<rect x="534" y="559.2" class="st0" width="44" height="18"/>
	<circle class="st0" cx="469" cy="667.3" r="9"/>
	<circle class="st0" cx="469" cy="623.3" r="9"/>
	<circle class="st0" cx="495" cy="667.3" r="9"/>
	<circle class="st0" cx="495" cy="623.3" r="9"/>
	<rect x="460" y="636.2" class="st0" width="44" height="18"/>
	<circle class="st0" cx="543" cy="667.3" r="9"/>
	<circle class="st0" cx="543" cy="623.3" r="9"/>
	<circle class="st0" cx="569" cy="667.3" r="9"/>
	<circle class="st0" cx="569" cy="623.3" r="9"/>
	<rect x="534" y="636.2" class="st0" width="44" height="18"/>
	<circle class="st0" cx="737" cy="360.3" r="9"/>
	<circle class="st0" cx="737" cy="316.3" r="9"/>
	<circle class="st0" cx="763" cy="360.3" r="9"/>
	<circle class="st0" cx="763" cy="316.3" r="9"/>
	<rect x="728" y="329.2" class="st0" width="44" height="18"/>
	<circle class="st0" cx="811" cy="360.3" r="9"/>
	<circle class="st0" cx="811" cy="316.3" r="9"/>
	<circle class="st0" cx="837" cy="360.3" r="9"/>
	<circle class="st0" cx="837" cy="316.3" r="9"/>
	<rect x="802" y="329.2" class="st0" width="44" height="18"/>
	<circle class="st0" cx="737" cy="437.3" r="9"/>
	<circle class="st0" cx="737" cy="393.3" r="9"/>
	<circle class="st0" cx="763" cy="437.3" r="9"/>
	<circle class="st0" cx="763" cy="393.3" r="9"/>
	<rect x="728" y="406.2" class="st0" width="44" height="18"/>
	<circle class="st0" cx="811" cy="437.3" r="9"/>
	<circle class="st0" cx="811" cy="393.3" r="9"/>
	<circle class="st0" cx="837" cy="437.3" r="9"/>
	<circle class="st0" cx="837" cy="393.3" r="9"/>
	<rect x="802" y="406.2" class="st0" width="44" height="18"/>
	<circle class="st0" cx="737" cy="514.3" r="9"/>
	<circle class="st0" cx="737" cy="470.3" r="9"/>
	<circle class="st0" cx="763" cy="514.3" r="9"/>
	<circle class="st0" cx="763" cy="470.3" r="9"/>
	<rect x="728" y="483.2" class="st0" width="44" height="18"/>
	<circle class="st0" cx="811" cy="514.3" r="9"/>
	<circle class="st0" cx="811" cy="470.3" r="9"/>
	<circle class="st0" cx="837" cy="514.3" r="9"/>
	<circle class="st0" cx="837" cy="470.3" r="9"/>
	<rect x="802" y="483.2" class="st0" width="44" height="18"/>
	<circle class="st0" cx="737" cy="590.3" r="9"/>
	<circle class="st0" cx="737" cy="546.3" r="9"/>
	<circle class="st0" cx="763" cy="590.3" r="9"/>
	<circle class="st0" cx="763" cy="546.3" r="9"/>
	<rect x="728" y="559.2" class="st0" width="44" height="18"/>
	<circle class="st0" cx="811" cy="590.3" r="9"/>
	<circle class="st0" cx="811" cy="546.3" r="9"/>
	<circle class="st0" cx="837" cy="590.3" r="9"/>
	<circle class="st0" cx="837" cy="546.3" r="9"/>
	<rect x="802" y="559.2" class="st0" width="44" height="18"/>
	<circle class="st0" cx="737" cy="667.3" r="9"/>
	<circle class="st0" cx="737" cy="623.3" r="9"/>
	<circle class="st0" cx="763" cy="667.3" r="9"/>
	<circle class="st0" cx="763" cy="623.3" r="9"/>
	<rect x="728" y="636.2" class="st0" width="44" height="18"/>
	<circle class="st0" cx="811" cy="667.3" r="9"/>
	<circle class="st0" cx="811" cy="623.3" r="9"/>
	<circle class="st0" cx="837" cy="667.3" r="9"/>
	<circle class="st0" cx="837" cy="623.3" r="9"/>
	<rect x="802" y="636.2" class="st0" width="44" height="18"/>
	<circle class="st0" cx="1010" cy="360.3" r="9"/>
	<circle class="st0" cx="1010" cy="316.3" r="9"/>
	<circle class="st0" cx="1036" cy="360.3" r="9"/>
	<circle class="st0" cx="1036" cy="316.3" r="9"/>
	<rect x="1001" y="329.2" class="st0" width="44" height="18"/>
	<circle class="st0" cx="1084" cy="360.3" r="9"/>
	<circle class="st0" cx="1084" cy="316.3" r="9"/>
	<circle class="st0" cx="1110" cy="360.3" r="9"/>
	<circle class="st0" cx="1110" cy="316.3" r="9"/>
	<rect x="1075" y="329.2" class="st0" width="44" height="18"/>
	<circle class="st0" cx="1010" cy="437.3" r="9"/>
	<circle class="st0" cx="1010" cy="393.3" r="9"/>
	<circle class="st0" cx="1036" cy="437.3" r="9"/>
	<circle class="st0" cx="1036" cy="393.3" r="9"/>
	<rect x="1001" y="406.2" class="st0" width="44" height="18"/>
	<circle class="st0" cx="1084" cy="437.3" r="9"/>
	<circle class="st0" cx="1084" cy="393.3" r="9"/>
	<circle class="st0" cx="1110" cy="437.3" r="9"/>
	<circle class="st0" cx="1110" cy="393.3" r="9"/>
	<rect x="1075" y="406.2" class="st0" width="44" height="18"/>
	<circle class="st0" cx="1010" cy="514.3" r="9"/>
	<circle class="st0" cx="1010" cy="470.3" r="9"/>
	<circle class="st0" cx="1036" cy="514.3" r="9"/>
	<circle class="st0" cx="1036" cy="470.3" r="9"/>
	<rect x="1001" y="483.2" class="st0" width="44" height="18"/>
	<circle class="st0" cx="1084" cy="514.3" r="9"/>
	<circle class="st0" cx="1084" cy="470.3" r="9"/>
	<circle class="st0" cx="1110" cy="514.3" r="9"/>
	<circle class="st0" cx="1110" cy="470.3" r="9"/>
	<rect x="1075" y="483.2" class="st0" width="44" height="18"/>
	<circle class="st0" cx="1010" cy="590.3" r="9"/>
	<circle class="st0" cx="1010" cy="546.3" r="9"/>
	<circle class="st0" cx="1036" cy="590.3" r="9"/>
	<circle class="st0" cx="1036" cy="546.3" r="9"/>
	<rect x="1001" y="559.2" class="st0" width="44" height="18"/>
	<circle class="st0" cx="1084" cy="590.3" r="9"/>
	<circle class="st0" cx="1084" cy="546.3" r="9"/>
	<circle class="st0" cx="1110" cy="590.3" r="9"/>
	<circle class="st0" cx="1110" cy="546.3" r="9"/>
	<rect x="1075" y="559.2" class="st0" width="44" height="18"/>
	<circle class="st0" cx="1010" cy="667.3" r="9"/>
	<circle class="st0" cx="1010" cy="623.3" r="9"/>
	<circle class="st0" cx="1036" cy="667.3" r="9"/>
	<circle class="st0" cx="1036" cy="623.3" r="9"/>
	<rect x="1001" y="636.2" class="st0" width="44" height="18"/>
	<circle class="st0" cx="1084" cy="667.3" r="9"/>
	<circle class="st0" cx="1084" cy="623.3" r="9"/>
	<circle class="st0" cx="1110" cy="667.3" r="9"/>
	<circle class="st0" cx="1110" cy="623.3" r="9"/>
	<rect x="1075" y="636.2" class="st0" width="44" height="18"/>
	<circle class="st0" cx="1280" cy="360.3" r="9"/>
	<circle class="st0" cx="1280" cy="316.3" r="9"/>
	<circle class="st0" cx="1306" cy="360.3" r="9"/>
	<circle class="st0" cx="1306" cy="316.3" r="9"/>
	<rect x="1271" y="329.2" class="st0" width="44" height="18"/>
	<circle class="st0" cx="1354" cy="360.3" r="9"/>
	<circle class="st0" cx="1354" cy="316.3" r="9"/>
	<circle class="st0" cx="1380" cy="360.3" r="9"/>
	<circle class="st0" cx="1380" cy="316.3" r="9"/>
	<rect x="1345" y="329.2" class="st0" width="44" height="18"/>
	<circle class="st0" cx="1280" cy="437.3" r="9"/>
	<circle class="st0" cx="1280" cy="393.3" r="9"/>
	<circle class="st0" cx="1306" cy="437.3" r="9"/>
	<circle class="st0" cx="1306" cy="393.3" r="9"/>
	<rect x="1271" y="406.2" class="st0" width="44" height="18"/>
	<circle class="st0" cx="1354" cy="437.3" r="9"/>
	<circle class="st0" cx="1354" cy="393.3" r="9"/>
	<circle class="st0" cx="1380" cy="437.3" r="9"/>
	<circle class="st0" cx="1380" cy="393.3" r="9"/>
	<rect x="1345" y="406.2" class="st0" width="44" height="18"/>
	<circle class="st0" cx="1280" cy="514.3" r="9"/>
	<circle class="st0" cx="1280" cy="470.3" r="9"/>
	<circle class="st0" cx="1306" cy="514.3" r="9"/>
	<circle class="st0" cx="1306" cy="470.3" r="9"/>
	<rect x="1271" y="483.2" class="st0" width="44" height="18"/>
	<circle class="st0" cx="1354" cy="514.3" r="9"/>
	<circle class="st0" cx="1354" cy="470.3" r="9"/>
	<circle class="st0" cx="1380" cy="514.3" r="9"/>
	<circle class="st0" cx="1380" cy="470.3" r="9"/>
	<rect x="1345" y="483.2" class="st0" width="44" height="18"/>
	<circle class="st0" cx="1280" cy="590.3" r="9"/>
	<circle class="st0" cx="1280" cy="546.3" r="9"/>
	<circle class="st0" cx="1306" cy="590.3" r="9"/>
	<circle class="st0" cx="1306" cy="546.3" r="9"/>
	<rect x="1271" y="559.2" class="st0" width="44" height="18"/>
	<circle class="st0" cx="1354" cy="590.3" r="9"/>
	<circle class="st0" cx="1354" cy="546.3" r="9"/>
	<circle class="st0" cx="1380" cy="590.3" r="9"/>
	<circle class="st0" cx="1380" cy="546.3" r="9"/>
	<rect x="1345" y="559.2" class="st0" width="44" height="18"/>
	<circle class="st0" cx="1280" cy="667.3" r="9"/>
	<circle class="st0" cx="1280" cy="623.3" r="9"/>
	<circle class="st0" cx="1306" cy="667.3" r="9"/>
	<circle class="st0" cx="1306" cy="623.3" r="9"/>
	<rect x="1271" y="636.2" class="st0" width="44" height="18"/>
	<circle class="st0" cx="1354" cy="667.3" r="9"/>
	<circle class="st0" cx="1354" cy="623.3" r="9"/>
	<circle class="st0" cx="1380" cy="667.3" r="9"/>
	<circle class="st0" cx="1380" cy="623.3" r="9"/>
	<rect x="1345" y="636.2" class="st0" width="44" height="18"/>
	<circle class="st0" cx="1149" cy="707.3" r="9"/>
	<circle class="st0" cx="1149" cy="663.3" r="9"/>
	<circle class="st0" cx="1175" cy="707.3" r="9"/>
	<circle class="st0" cx="1175" cy="663.3" r="9"/>
	<rect x="1140" y="676.2" class="st0" width="44" height="18"/>
	<circle class="st0" cx="1212" cy="707.3" r="9"/>
	<circle class="st0" cx="1212" cy="663.3" r="9"/>
	<circle class="st0" cx="1238" cy="707.3" r="9"/>
	<circle class="st0" cx="1238" cy="663.3" r="9"/>
	<rect x="1203" y="676.2" class="st0" width="44" height="18"/>
	<circle class="st0" cx="1557" cy="360.3" r="9"/>
	<circle class="st0" cx="1557" cy="316.3" r="9"/>
	<circle class="st0" cx="1583" cy="360.3" r="9"/>
	<circle class="st0" cx="1583" cy="316.3" r="9"/>
	<rect x="1548" y="329.2" class="st0" width="44" height="18"/>
	<circle class="st0" cx="1631" cy="360.3" r="9"/>
	<circle class="st0" cx="1631" cy="316.3" r="9"/>
	<circle class="st0" cx="1657" cy="360.3" r="9"/>
	<circle class="st0" cx="1657" cy="316.3" r="9"/>
	<rect x="1622" y="329.2" class="st0" width="44" height="18"/>
	<circle class="st0" cx="1557" cy="437.3" r="9"/>
	<circle class="st0" cx="1557" cy="393.3" r="9"/>
	<circle class="st0" cx="1583" cy="437.3" r="9"/>
	<circle class="st0" cx="1583" cy="393.3" r="9"/>
	<rect x="1548" y="406.2" class="st0" width="44" height="18"/>
	<circle class="st0" cx="1631" cy="437.3" r="9"/>
	<circle class="st0" cx="1631" cy="393.3" r="9"/>
	<circle class="st0" cx="1657" cy="437.3" r="9"/>
	<circle class="st0" cx="1657" cy="393.3" r="9"/>
	<rect x="1622" y="406.2" class="st0" width="44" height="18"/>
	<circle class="st0" cx="1557" cy="514.3" r="9"/>
	<circle class="st0" cx="1557" cy="470.3" r="9"/>
	<circle class="st0" cx="1583" cy="514.3" r="9"/>
	<circle class="st0" cx="1583" cy="470.3" r="9"/>
	<rect x="1548" y="483.2" class="st0" width="44" height="18"/>
	<circle class="st0" cx="1631" cy="514.3" r="9"/>
	<circle class="st0" cx="1631" cy="470.3" r="9"/>
	<circle class="st0" cx="1657" cy="514.3" r="9"/>
	<circle class="st0" cx="1657" cy="470.3" r="9"/>
	<rect x="1622" y="483.2" class="st0" width="44" height="18"/>
	<circle class="st0" cx="1557" cy="590.3" r="9"/>
	<circle class="st0" cx="1557" cy="546.3" r="9"/>
	<circle class="st0" cx="1583" cy="590.3" r="9"/>
	<circle class="st0" cx="1583" cy="546.3" r="9"/>
	<rect x="1548" y="559.2" class="st0" width="44" height="18"/>
	<circle class="st0" cx="1631" cy="590.3" r="9"/>
	<circle class="st0" cx="1631" cy="546.3" r="9"/>
	<circle class="st0" cx="1657" cy="590.3" r="9"/>
	<circle class="st0" cx="1657" cy="546.3" r="9"/>
	<rect x="1622" y="559.2" class="st0" width="44" height="18"/>
	<circle class="st0" cx="1557" cy="667.3" r="9"/>
	<circle class="st0" cx="1557" cy="623.3" r="9"/>
	<circle class="st0" cx="1583" cy="667.3" r="9"/>
	<circle class="st0" cx="1583" cy="623.3" r="9"/>
	<rect x="1548" y="636.2" class="st0" width="44" height="18"/>
	<circle class="st0" cx="1631" cy="667.3" r="9"/>
	<circle class="st0" cx="1631" cy="623.3" r="9"/>
	<circle class="st0" cx="1657" cy="667.3" r="9"/>
	<circle class="st0" cx="1657" cy="623.3" r="9"/>
	<rect x="1622" y="636.2" class="st0" width="44" height="18"/>
	<circle class="st0" cx="474" cy="742.3" r="9"/>
	<circle class="st0" cx="518" cy="742.3" r="9"/>
	<circle class="st0" cx="474" cy="768.3" r="9"/>
	<circle class="st0" cx="518" cy="768.3" r="9"/>
	<rect x="487.2" y="733.3" class="st0" width="18" height="44"/>
	<circle class="st0" cx="569" cy="742.3" r="9"/>
	<circle class="st0" cx="613" cy="742.3" r="9"/>
	<circle class="st0" cx="569" cy="768.3" r="9"/>
	<circle class="st0" cx="613" cy="768.3" r="9"/>
	<rect x="582.2" y="733.3" class="st0" width="18" height="44"/>
	<circle class="st0" cx="665" cy="742.3" r="9"/>
	<circle class="st0" cx="709" cy="742.3" r="9"/>
	<circle class="st0" cx="665" cy="768.3" r="9"/>
	<circle class="st0" cx="709" cy="768.3" r="9"/>
	<rect x="678.2" y="733.3" class="st0" width="18" height="44"/>
	<circle class="st0" cx="760" cy="742.3" r="9"/>
	<circle class="st0" cx="804" cy="742.3" r="9"/>
	<circle class="st0" cx="760" cy="768.3" r="9"/>
	<circle class="st0" cx="804" cy="768.3" r="9"/>
	<rect x="773.2" y="733.3" class="st0" width="18" height="44"/>
	<circle class="st0" cx="855" cy="742.3" r="9"/>
	<circle class="st0" cx="899" cy="742.3" r="9"/>
	<circle class="st0" cx="855" cy="768.3" r="9"/>
	<circle class="st0" cx="899" cy="768.3" r="9"/>
	<rect x="868.2" y="733.3" class="st0" width="18" height="44"/>
	<circle class="st0" cx="950" cy="742.3" r="9"/>
	<circle class="st0" cx="994" cy="742.3" r="9"/>
	<circle class="st0" cx="950" cy="768.3" r="9"/>
	<circle class="st0" cx="994" cy="768.3" r="9"/>
	<rect x="963.2" y="733.3" class="st0" width="18" height="44"/>
	<circle class="st0" cx="1045" cy="742.3" r="9"/>
	<circle class="st0" cx="1089" cy="742.3" r="9"/>
	<circle class="st0" cx="1045" cy="768.3" r="9"/>
	<circle class="st0" cx="1089" cy="768.3" r="9"/>
	<rect x="1058.2" y="733.3" class="st0" width="18" height="44"/>
	<circle class="st0" cx="1140" cy="742.3" r="9"/>
	<circle class="st0" cx="1184" cy="742.3" r="9"/>
	<circle class="st0" cx="1140" cy="768.3" r="9"/>
	<circle class="st0" cx="1184" cy="768.3" r="9"/>
	<rect x="1153.2" y="733.3" class="st0" width="18" height="44"/>
	<circle class="st0" cx="1236" cy="742.3" r="9"/>
	<circle class="st0" cx="1280" cy="742.3" r="9"/>
	<circle class="st0" cx="1236" cy="768.3" r="9"/>
	<circle class="st0" cx="1280" cy="768.3" r="9"/>
	<rect x="1249.2" y="733.3" class="st0" width="18" height="44"/>
	<circle class="st0" cx="1331" cy="742.3" r="9"/>
	<circle class="st0" cx="1375" cy="742.3" r="9"/>
	<circle class="st0" cx="1331" cy="768.3" r="9"/>
	<circle class="st0" cx="1375" cy="768.3" r="9"/>
	<rect x="1344.2" y="733.3" class="st0" width="18" height="44"/>
	<circle class="st0" cx="1426" cy="742.3" r="9"/>
	<circle class="st0" cx="1470" cy="742.3" r="9"/>
	<circle class="st0" cx="1426" cy="768.3" r="9"/>
	<circle class="st0" cx="1470" cy="768.3" r="9"/>
	<rect x="1439.2" y="733.3" class="st0" width="18" height="44"/>
	<circle class="st0" cx="1521" cy="742.3" r="9"/>
	<circle class="st0" cx="1565" cy="742.3" r="9"/>
	<circle class="st0" cx="1521" cy="768.3" r="9"/>
	<circle class="st0" cx="1565" cy="768.3" r="9"/>
	<rect x="1534.2" y="733.3" class="st0" width="18" height="44"/>
	<circle class="st0" cx="1616" cy="742.3" r="9"/>
	<circle class="st0" cx="1660" cy="742.3" r="9"/>
	<circle class="st0" cx="1616" cy="768.3" r="9"/>
	<circle class="st0" cx="1660" cy="768.3" r="9"/>
	<rect x="1629.2" y="733.3" class="st0" width="18" height="44"/>
</g>
<g id="Layer_2">
	<rect x="324" y="424" class="st1" width="57.3" height="61"/>
	<rect x="381.3" y="424" class="st1" width="57.3" height="61"/>
	<rect x="324" y="362.8" class="st1" width="57.3" height="61"/>
	<rect x="381.3" y="362.8" class="st1" width="57.3" height="61"/>
	<rect x="324" y="485" class="st1" width="57.3" height="61"/>
	<rect x="381.3" y="485" class="st1" width="57.3" height="61"/>
	<rect x="324" y="546" class="st1" width="57.3" height="122"/>
	<rect x="381.3" y="546" class="st1" width="57.3" height="61"/>
	<rect x="381.3" y="607" class="st1" width="57.3" height="61"/>
	<rect x="324" y="668" class="st1" width="57.3" height="56.7"/>
	<rect x="381.3" y="668" class="st1" width="57.3" height="56.7"/>
	<rect x="594.7" y="342.3" class="st1" width="57.3" height="61"/>
	<rect x="652" y="342.3" class="st1" width="57.3" height="61"/>
	<rect x="594.7" y="403.3" class="st1" width="57.3" height="61"/>
	<rect x="652" y="403.3" class="st1" width="57.3" height="61"/>
	<rect x="594.7" y="464.3" class="st1" width="57.3" height="61"/>
	<rect x="652" y="464.3" class="st1" width="57.3" height="61"/>
	<rect x="594.7" y="525.3" class="st1" width="57.3" height="64"/>
	<rect x="652" y="525.3" class="st1" width="57.3" height="64"/>
	<rect x="594.7" y="589.3" class="st1" width="57.3" height="53.7"/>
	<rect x="652" y="589.3" class="st1" width="57.3" height="53.7"/>
	<rect x="594.7" y="643" class="st1" width="57.3" height="52.3"/>
	<rect x="652" y="643" class="st1" width="57.3" height="52.3"/>
	<rect x="866" y="342.3" class="st1" width="57.3" height="61"/>
	<rect x="923.3" y="342.3" class="st1" width="57.3" height="61"/>
	<rect x="866" y="403.3" class="st1" width="57.3" height="61"/>
	<rect x="923.3" y="403.3" class="st1" width="57.3" height="61"/>
	<rect x="866" y="464.3" class="st1" width="57.3" height="64"/>
	<rect x="923.3" y="464.3" class="st1" width="57.3" height="64"/>
	<rect x="866" y="528.3" class="st1" width="57.3" height="114.7"/>
	<rect x="923.3" y="528.3" class="st1" width="57.3" height="62"/>
	<rect x="923.3" y="590.3" class="st1" width="57.3" height="52.7"/>
	<rect x="866" y="643" class="st1" width="57.3" height="52.3"/>
	<rect x="923.3" y="643" class="st1" width="57.3" height="52.3"/>
	<rect x="1137" y="342.3" class="st1" width="57.3" height="61"/>
	<rect x="1194.3" y="342.3" class="st1" width="57.3" height="61"/>
	<rect x="1137" y="403.3" class="st1" width="57.3" height="61"/>
	<rect x="1194.3" y="403.3" class="st1" width="57.3" height="61"/>
	<rect x="1137" y="464.3" class="st1" width="57.3" height="63"/>
	<rect x="1194.3" y="464.3" class="st1" width="57.3" height="63"/>
	<rect x="1137" y="527.3" class="st1" width="57.3" height="61"/>
	<rect x="1194.3" y="527.3" class="st1" width="57.3" height="61"/>
	<rect x="1137" y="588.3" class="st1" width="57.3" height="54.7"/>
	<rect x="1194.3" y="588.3" class="st1" width="57.3" height="54.7"/>
	<rect x="1407.7" y="281.3" class="st1" width="57.3" height="61"/>
	<rect x="1465" y="281.3" class="st1" width="57.3" height="61"/>
	<rect x="1407.7" y="342.3" class="st1" width="57.3" height="61"/>
	<rect x="1465" y="342.3" class="st1" width="57.3" height="61"/>
	<rect x="1407.7" y="403.3" class="st1" width="57.3" height="63"/>
	<rect x="1465" y="403.3" class="st1" width="57.3" height="63"/>
	<rect x="1407.7" y="466.3" class="st1" width="57.3" height="61"/>
	<rect x="1465" y="466.3" class="st1" width="57.3" height="61"/>
	<rect x="1407.7" y="527.3" class="st1" width="57.3" height="63"/>
	<rect x="1465" y="527.3" class="st1" width="57.3" height="63"/>
	<rect x="1407.7" y="590.3" class="st1" width="57.3" height="52.7"/>
	<rect x="1465" y="590.3" class="st1" width="57.3" height="52.7"/>
	<rect x="1407.7" y="643" class="st1" width="57.3" height="52.3"/>
	<rect x="1465" y="643" class="st1" width="57.3" height="52.3"/>
</g>
</svg>
